#!OML:ASF E:\Steps\Project 1\Capture day 1\Session 2\Subject.ASF
:FULLY-SPECIFIED
:DEGREES
408
root 3.47042 18.7774 8.64092 -153.821 4.93783 175.334
lowerback -21.4824 -1.70719 -5.23196
upperback 0.986118 -0.71423 -0.403253
thorax 13.3226 -0.616272 2.31931
lowerneck -2.69641 -1.19528 -2.48167
upperneck 16.0647 -0.96672 2.20428
head 5.29722 -0.169515 1.0758
rclavicle -6.70898e-015 -3.20043e-014
rhumerus -40.9058 -18.6368 -76.2458
rradius 40.18
rwrist -3.00527
rhand -9.9413 -411.975
rfingers 7.12502
rthumb 16.0402 -441.331
lclavicle -6.70898e-015 -3.20043e-014
lhumerus -36.189 -6.06467 83.3015
lradius 29.8787
lwrist 5.32495
lhand -20.8471 -12.7108
lfingers 7.12502
lthumb 5.52197 17.1972
rfemur -37.6736 12.2914 12.4347
rtibia 24.5295
rfoot -23.6748 -1.61143
rtoes -24.1527
lfemur -33.8486 -3.6065 -29.1876
ltibia 23.8802
lfoot -14.1695 2.48779
ltoes -25.1555
409
root 3.46163 18.7876 8.59808 -154.02 4.71772 175.279
lowerback -21.5508 -1.78688 -5.13382
upperback 0.879978 -0.831921 -0.423384
thorax 13.2456 -0.65471 2.20332
lowerneck -2.74816 -1.16776 -2.41238
upperneck 15.7746 -0.953502 2.12232
head 5.21496 -0.176805 1.0369
rclavicle -1.92821e-014 5.36719e-015
rhumerus -41.0285 -18.7932 -76.3463
rradius 39.9652
rwrist -2.94483
rhand -9.85984 -412.017
rfingers 7.12502
rthumb 16.1186 -441.367
lclavicle -1.92821e-014 5.36719e-015
lhumerus -36.4015 -5.85933 83.2886
lradius 29.7017
lwrist 5.14198
lhand -20.8501 -12.873
lfingers 7.12502
lthumb 5.51905 17.0351
rfemur -36.9731 12.2471 12.4588
rtibia 24.0316
rfoot -23.6313 -1.67763
rtoes -23.7757
lfemur -33.2755 -3.81357 -29.221
ltibia 23.5982
lfoot -14.2092 2.39328
ltoes -24.7325
410
root 3.45547 18.7958 8.55871 -154.187 4.5976 175.277
lowerback -21.7139 -1.85125 -4.99444
upperback 0.760436 -0.929445 -0.458866
thorax 13.2039 -0.679817 2.05233
lowerneck -2.67914 -1.15101 -2.45364
upperneck 15.5166 -0.939463 2.04958
head 5.12307 -0.185801 1.02012
rclavicle -1.35174e-014 -4.57205e-015
rhumerus -41.1136 -18.8245 -76.5486
rradius 39.7446
rwrist -3.00367
rhand -9.93104 -412.672
rfingers 7.12502
rthumb 16.0501 -442.027
lclavicle -1.35174e-014 -4.57205e-015
lhumerus -36.5894 -5.66921 83.2382
lradius 29.4484
lwrist 4.98615
lhand -20.9653 -12.3627
lfingers 7.12502
lthumb 5.40789 17.5483
rfemur -36.3904 12.1628 12.5458
rtibia 23.6415
rfoot -23.5491 -1.68709
rtoes -23.4033
lfemur -32.7655 -3.9464 -29.1937
ltibia 23.2979
lfoot -14.1987 2.28323
ltoes -23.3988
411
root 3.45494 18.8005 8.5216 -154.247 4.60215 175.47
lowerback -21.9537 -1.83603 -4.8059
upperback 0.615067 -0.941176 -0.414556
thorax 13.1692 -0.665711 1.99112
lowerneck -2.65954 -1.22137 -2.51789
upperneck 15.4159 -1.03257 1.99547
head 5.0911 -0.242079 1.00841
rclavicle -8.39865e-015 9.93923e-016
rhumerus -41.2707 -18.9668 -76.6068
rradius 39.5529
rwrist -2.98755
rhand -9.93756 -412.811
rfingers 7.12502
rthumb 16.0438 -442.167
lclavicle -8.39865e-015 9.93923e-016
lhumerus -36.7151 -5.43741 83.2352
lradius 29.0809
lwrist 4.74438
lhand -21.0968 -11.9086
lfingers 7.12502
lthumb 5.28088 18.0056
rfemur -36.0275 12.3191 12.7563
rtibia 23.3453
rfoot -23.5047 -1.71563
rtoes -23.3387
lfemur -32.4209 -3.96164 -28.9297
ltibia 22.9635
lfoot -14.1154 2.54947
ltoes -23.8232
